<?xml version="1.0" encoding="UTF-8" standalone="no"?>
<!-- Generator: Adobe Illustrator 14.0.0, SVG Export Plug-In . SVG Version: 6.00 Build 43363)  -->

<svg
   xmlns:dc="http://purl.org/dc/elements/1.1/"
   xmlns:cc="http://creativecommons.org/ns#"
   xmlns:rdf="http://www.w3.org/1999/02/22-rdf-syntax-ns#"
   xmlns:svg="http://www.w3.org/2000/svg"
   xmlns="http://www.w3.org/2000/svg"
   xmlns:sodipodi="http://sodipodi.sourceforge.net/DTD/sodipodi-0.dtd"
   xmlns:inkscape="http://www.inkscape.org/namespaces/inkscape"
   version="1.1"
   id="svg2"
   inkscape:version="0.48.5 r10040"
   sodipodi:docname="mm_logo_tagline.svg"
   x="0px"
   y="0px"
   width="596.19403"
   height="197.17131"
   viewBox="61.444 164.139 596.19403 197.17131"
   enable-background="new 61.444 164.139 668 221"
   xml:space="preserve"><metadata
     id="metadata3129"><rdf:RDF><cc:Work
         rdf:about=""><dc:format>image/svg+xml</dc:format><dc:type
           rdf:resource="http://purl.org/dc/dcmitype/StillImage" /></cc:Work></rdf:RDF></metadata><defs
     id="defs3127" /><sodipodi:namedview
     id="namedview3025"
     guidetolerance="10"
     objecttolerance="10"
     bordercolor="#666666"
     pagecolor="#ffffff"
     borderopacity="1"
     gridtolerance="10"
     inkscape:pageopacity="0"
     inkscape:pageshadow="2"
     inkscape:window-width="1399"
     inkscape:window-height="838"
     showgrid="false"
     inkscape:zoom="1.1961291"
     inkscape:cx="313.88292"
     inkscape:cy="-1.5171491"
     inkscape:window-x="39"
     inkscape:window-y="0"
     inkscape:current-layer="text2996"
     inkscape:window-maximized="0"
     showguides="true"
     inkscape:guide-bbox="true"
     fit-margin-top="0"
     fit-margin-left="0"
     fit-margin-right="0"
     fit-margin-bottom="0"
     showborder="true" /><g
     id="g3097"
     transform="translate(-40.5,-29.545)"><path
       d="m 116.96875,85.59375 c -0.429,0.481 -0.8585,0.95225 -1.3125,1.40625 -6.142,6.14 -14.6585,9.9365 -24.0625,9.9375 -9.406,0 -17.9205,-3.7955 -24.0625,-9.9375 -0.452,-0.453 -0.8855,-0.897 -1.3125,-1.375 C 51.96675,86.226 40.5,98.01175 40.5,112.34375 l 0,48.84375 c 0,14.713 12.1,26.75 26.875,26.75 l 48.625,0 c 14.775,0 26.875,-12.037 26.875,-26.75 l 0,-48.84375 c 0,-14.387 -11.57625,-26.235 -25.90625,-26.75 z m -46.53125,16.6875 c 4.85,0 8.6205,3.508 9.6875,7 l 11.46875,38.40625 0.1875,0 11.4375,-38.40625 c 1.067,-3.492 4.8375,-7 9.6875,-7 5.141,0 8.94925,3.97675 9.53125,7.46875 l 9,54.15625 c 0.097,0.582 0.0937,1.14 0.0937,1.625 0,4.269 -3.08875,7 -6.96875,7 -4.947,0 -6.8835,-2.2535 -7.5625,-6.8125 L 111.2812,126.25 l -0.21875,0 -11.625,40.65625 c -0.679,2.328 -2.512,5.625 -7.75,5.625 -5.238,0 -7.10225,-3.297 -7.78125,-5.625 L 72.2812,126.25 l -0.1875,0 -5.71875,39.46875 c -0.679,4.559 -2.64675,6.8125 -7.59375,6.8125 -3.88,0 -6.96875,-2.732 -6.96875,-7 0,-0.485 -0.0033,-1.043 0.09375,-1.625 L 60.9375,109.75 c 0.582,-3.492 4.359,-7.46875 9.5,-7.46875 z"
       transform="translate(61.444,164.139)"
       id="_43397168_1_"
       style="fill:#333333;fill-opacity:1"
       inkscape:connector-curvature="0" /><path
       id="_43395536_1_"
       inkscape:export-xdpi="18.052399"
       inkscape:export-ydpi="18.052399"
       inkscape:export-filename="/Users/karsten/HiDrive/Projekte/mundmische/source/mundmische3/public/images/mm_logo_small.png"
       d="m 153.123,193.698 c 15.652,0 28.346,12.694 28.346,28.347 0,15.653 -12.693,28.347 -28.346,28.347 -15.653,0 -28.347,-12.694 -28.347,-28.347 0,-15.653 12.694,-28.347 28.347,-28.347 z"
       inkscape:connector-curvature="0"
       style="fill:#2191fb" /></g><path
     d="m 172.51801,262.11 c 0,-4.656 2.90999,-7.76 6.98399,-7.76 4.074,0 6.98401,3.104 6.98401,7.76 v 24.93 c 0,5.819 4.365,9.021 9.02099,9.021 4.656,0 9.021,-3.201 9.021,-9.021 v -24.93 c 0,-4.656 2.91001,-7.76 6.98401,-7.76 4.074,0 6.984,3.104 6.984,7.76 v 25.221 c 0,12.416 -8.245,20.369 -22.989,20.369 -14.744,0 -22.989,-7.953 -22.989,-20.369 V 262.11 z"
     id="path3103"
     inkscape:connector-curvature="0"
     style="fill:#333333" /><path
     d="m 226.45,262.11 c 0,-4.656 2.91,-7.76 6.98401,-7.76 3.58899,0 5.91699,1.94 6.40199,5.141 2.716,-3.783 6.887,-5.723 13.483,-5.723 10.961,0 19.109,6.984 19.109,18.818 v 26.771 c 0,4.656 -2.91,7.76 -6.984,7.76 -4.074,0 -6.984,-3.104 -6.984,-7.76 V 275.01 c 0,-6.499 -4.074,-9.603 -9.118,-9.603 -5.723,0 -8.924,4.17 -8.924,9.603 v 24.347 c 0,4.656 -2.91,7.76 -6.984,7.76 -4.074,0 -6.984,-3.104 -6.984,-7.76 V 262.11 z"
     id="path3105"
     inkscape:connector-curvature="0"
     style="fill:#333333" /><path
     d="m 321.123,231.846 c -4.074,0 -6.984,3.104 -6.984,7.76 v 19.012 c -3.68599,-3.201 -8.439,-4.85 -13.289,-4.85 -15.035,0 -22.504,14.065 -22.504,27.645 0,13.192 8.924,26.287 22.989,26.287 4.753,0 10.185,-2.134 12.804,-6.401 0.873,3.686 3.104,5.819 6.984,5.819 4.074,0 6.984,-3.104 6.984,-7.76 v -59.752 c 0,-4.656 -2.91,-7.76 -6.984,-7.76 z m -17.946,63.05 c -7.275,0 -10.864,-7.565 -10.864,-14.065 0,-6.596 3.589,-14.258 10.864,-14.258 7.469,0 10.961,6.984 10.961,13.774 0,6.79 -3.297,14.549 -10.961,14.549 z"
     id="path3107"
     inkscape:connector-curvature="0"
     style="fill:#333333" /><g
     id="g3109"
     transform="translate(-40.5,-29.545)"><path
       d="m 365.4375,85.59375 c 0.587,0.046 1.18125,0.0625 1.78125,0.0625 0.597,0 1.19525,-0.0165 1.78125,-0.0625 l -3.5625,0 z m 27.15625,0 c -0.43,0.481 -0.8585,0.95225 -1.3125,1.40625 -6.142,6.14 -14.6585,9.9365 -24.0625,9.9375 -9.407,0 -17.88825,-3.7955 -24.03125,-9.9375 -0.452,-0.453 -0.91775,-0.897 -1.34375,-1.375 -14.252,0.601 -25.71875,12.38675 -25.71875,26.71875 l 0,48.84375 c 0,14.713 12.1,26.75 26.875,26.75 l 48.625,0 c 14.775,0 26.875,-12.037 26.875,-26.75 l 0,-48.84375 c 0,-14.387 -11.57725,-26.235 -25.90625,-26.75 z m -46.53125,16.6875 c 4.85,0 8.65175,3.508 9.71875,7 l 11.4375,38.40625 0.1875,0 11.4375,-38.40625 c 1.066,-3.492 4.86975,-7 9.71875,-7 5.141,0 8.918,3.97675 9.5,7.46875 l 9.03125,54.15625 c 0.097,0.582 0.0937,1.14 0.0937,1.625 0,4.269 -3.121,7 -7,7 -4.947,0 -6.8845,-2.2535 -7.5625,-6.8125 L 386.9062,126.25 l -0.1875,0 -11.65625,40.65625 c -0.68,2.328 -2.511,5.625 -7.75,5.625 -5.237,0 -7.071,-3.297 -7.75,-5.625 l -11.6562,-40.65625 -0.1875,0 L 342,165.71875 c -0.679,4.559 -2.6155,6.8125 -7.5625,6.8125 -3.88,0 -7,-2.732 -7,-7 0,-0.485 -0.003,-1.043 0.0937,-1.625 L 336.5625,109.75 c 0.582,-3.492 4.359,-7.46875 9.5,-7.46875 z"
       transform="translate(61.444,164.139)"
       id="_43397144_1_"
       style="fill:#333333;fill-opacity:1"
       inkscape:connector-curvature="0" /><path
       id="_43389560_1_"
       inkscape:export-xdpi="18.052399"
       inkscape:export-ydpi="18.052399"
       inkscape:export-filename="/Users/karsten/HiDrive/Projekte/mundmische/source/mundmische3/public/images/mm_logo_small.png"
       d="m 428.757,193.684 c 15.654,0 28.347,12.693 28.347,28.346 0,15.653 -12.692,28.347 -28.347,28.347 -15.653,0 -28.347,-12.693 -28.347,-28.347 -0.001,-15.653 12.694,-28.346 28.347,-28.346 z"
       inkscape:connector-curvature="0"
       style="fill:#d4185e" /></g><path
     d="m 463.444,241.061 c 0,4.365 -3.492,8.051 -7.857,8.051 -4.17,0 -7.855,-3.783 -7.855,-8.051 0,-3.977 3.686,-7.663 7.855,-7.663 4.172,0 7.857,3.588 7.857,7.663 z"
     id="path3115"
     inkscape:connector-curvature="0"
     style="fill:#333333" /><path
     d="m 448.604,262.11 c 0,-4.656 2.91,-7.76 6.982,-7.76 4.074,0 6.984,3.104 6.984,7.76 v 37.248 c 0,4.656 -2.91,7.76 -6.984,7.76 -4.072,0 -6.982,-3.104 -6.982,-7.76 V 262.11 z"
     id="path3117"
     inkscape:connector-curvature="0"
     style="fill:#333333" /><path
     d="m 499.721,270.064 c -2.619,0 -7.95299,-4.074 -12.512,-4.074 -2.523,0 -4.754,1.164 -4.754,3.879 0,6.5 24.25,5.529 24.25,21.438 0,9.312 -7.857,16.393 -19.885,16.393 -7.857,0 -19.498,-4.461 -19.498,-10.767 0,-2.134 2.135,-6.208 6.016,-6.208 5.43201,0 7.85501,4.753 14.453,4.753 4.268,0 5.527,-1.358 5.527,-3.978 0,-6.401 -24.25,-5.432 -24.25,-21.437 0,-9.7 7.857,-16.296 18.916,-16.296 6.887,0 17.459,3.201 17.459,10.088 0.001,3.202 -2.423,6.209 -5.722,6.209 z"
     id="path3119"
     inkscape:connector-curvature="0"
     style="fill:#333333" /><path
     d="m 546.37801,269.287 c -3.492,0 -6.596,-2.715 -11.057,-2.715 -7.95501,0 -11.73801,7.081 -11.73801,14.258 0,6.888 4.172,14.065 11.73801,14.065 3.49,0 8.729,-2.909 10.379,-2.909 3.297,0 6.014,2.812 6.014,6.11 0,7.178 -12.029,9.603 -17.072,9.603 -15.035,0 -25.02501,-12.318 -25.02501,-26.869 0,-14.162 10.281,-27.062 25.02501,-27.062 5.529,0 17.072,2.037 17.072,8.827 0,2.91 -2.03701,6.692 -5.336,6.692 z"
     id="path3121"
     inkscape:connector-curvature="0"
     style="fill:#333333" /><path
     d="m 556.56301,239.606 c 0,-4.656 2.91,-7.76 6.984,-7.76 4.074,0 6.984,3.104 6.984,7.76 v 19.012 h 0.193 c 2.91,-3.589 8.342,-4.85 12.707,-4.85 10.961,0 19.109,6.984 19.109,18.818 v 26.771 c 0,4.656 -2.91,7.76 -6.984,7.76 -4.074,0 -6.984,-3.104 -6.984,-7.76 V 275.01 c 0,-6.499 -4.074,-9.603 -9.117,-9.603 -5.723,0 -8.924,4.17 -8.924,9.603 v 24.347 c 0,4.656 -2.91,7.76 -6.984,7.76 -4.074,0 -6.984,-3.104 -6.984,-7.76 v -59.751 z"
     id="path3123"
     inkscape:connector-curvature="0"
     style="fill:#333333" /><path
     d="m 650.75101,289.852 c -3.688,0 -8.635,5.626 -15.812,5.626 -6.498,0 -12.221,-3.2 -13.191,-10.088 h 29.779 c 4.268,0 6.111,-2.037 6.111,-6.208 0,-11.64 -9.992,-25.414 -25.12301,-25.414 -14.744,0 -25.027,12.901 -25.027,27.062 0,15.424 10.477,26.869 26.191,26.869 10.379,0 22.795,-5.819 22.795,-11.834 -0.001,-3.006 -2.717,-6.013 -5.723,-6.013 z m -18.237,-24.444 c 6.498,0 10.379,4.559 11.154,10.67 h -22.213 c 0.68,-5.918 4.85,-10.67 11.059,-10.67 z"
     id="path3125"
     inkscape:connector-curvature="0"
     style="fill:#333333" /><g
     style="font-size:40px;font-style:normal;font-weight:normal;line-height:125%;letter-spacing:0px;word-spacing:0px;fill:#333333;fill-opacity:1;stroke:none;font-family:Sans"
     id="text2996"
     transform="translate(-9.566885,-6.1361561)"><path
       d="m 78.643586,349.04647 c -3.32499,0 -6.199995,2.17501 -6.199995,5.675 0,5.8 8.349995,4.02501 8.349995,6.975 0,1.225 -0.9,2.15 -2.55,2.15 -1.62499,0 -3.025,-0.975 -4.19999,-0.975 -1.025004,0 -1.675005,0.8 -1.675005,1.775 0,2.35 4.150005,2.8 6.074995,2.8 3.45,0 6.4,-2.225 6.4,-5.8 0,-6.44999 -8.35,-4.8 -8.35,-7.375 0,-1.05 0.97501,-1.625 2.05,-1.625 1.5,0 2.30001,0.75 3.325,0.75 1.025,0 1.675,-0.875 1.675,-1.85 0,-1.975 -3.5,-2.5 -4.9,-2.5"
       style="font-size:25px;font-variant:normal;font-weight:bold;font-stretch:normal;fill:#333333;font-family:VAGRounded;-inkscape-font-specification:VAGRounded Bold"
       id="path3769"
       inkscape:connector-curvature="0" /><path
       d="m 86.446326,365.34647 c 0,1.25 0.8,1.95 1.875,1.95 1.075,0 1.875,-0.7 1.875,-1.95 l 0,-4.1 2.775,0 c 3.425,0 6.25,-2.275 6.25,-5.925 0,-3.57499 -2.725,-5.975 -6.4,-5.975 l -4.425,0 c -1.25,0 -1.95,0.775 -1.95,1.95 l 0,14.05 m 3.75,-12.7 2.55,0 c 1.575,0 2.575,1.15 2.575,2.65 0,1.5 -1,2.65 -2.575,2.65 l -2.55,0 0,-5.3"
       style="font-size:25px;font-variant:normal;font-weight:bold;font-stretch:normal;fill:#333333;font-family:VAGRounded;-inkscape-font-specification:VAGRounded Bold"
       id="path3771"
       inkscape:connector-curvature="0" /><path
       d="m 99.462336,364.72147 c -0.05,0.125 -0.175,0.425 -0.175,0.825 0,1 0.850014,1.75 1.850004,1.75 1.025,0 1.55001,-0.55 1.8,-1.325 l 0.75,-2.325 6.95,0 0.75,2.35 c 0.25,0.75 0.77501,1.3 1.825,1.3 0.925,0 1.725,-0.675 1.725,-1.65 0,-0.175 -0.05,-0.525 -0.2,-0.925 l -4.9,-13.6 c -0.42499,-1.2 -1.35,-2.075 -2.675,-2.075 -1.27499,0 -2.25,0.925 -2.675,2.075 l -5.025004,13.6 m 7.675004,-11.775 0.05,0 2.325,7.25 -4.75,0 2.375,-7.25"
       style="font-size:25px;font-variant:normal;font-weight:bold;font-stretch:normal;fill:#333333;font-family:VAGRounded;-inkscape-font-specification:VAGRounded Bold"
       id="path3773"
       inkscape:connector-curvature="0" /><path
       d="m 121.75883,349.04647 c -3.325,0 -6.2,2.17501 -6.2,5.675 0,5.8 8.35,4.02501 8.35,6.975 0,1.225 -0.9,2.15 -2.55,2.15 -1.625,0 -3.025,-0.975 -4.2,-0.975 -1.025,0 -1.675,0.8 -1.675,1.775 0,2.35 4.15,2.8 6.075,2.8 3.45,0 6.4,-2.225 6.4,-5.8 0,-6.44999 -8.35,-4.8 -8.35,-7.375 0,-1.05 0.975,-1.625 2.05,-1.625 1.5,0 2.3,0.75 3.325,0.75 1.025,0 1.675,-0.875 1.675,-1.85 0,-1.975 -3.5,-2.5 -4.9,-2.5"
       style="font-size:25px;font-variant:normal;font-weight:bold;font-stretch:normal;fill:#333333;font-family:VAGRounded;-inkscape-font-specification:VAGRounded Bold"
       id="path3775"
       inkscape:connector-curvature="0" /><path
       d="m 135.18656,349.04647 c -3.32499,0 -6.2,2.17501 -6.2,5.675 0,5.8 8.35,4.02501 8.35,6.975 0,1.225 -0.9,2.15 -2.55,2.15 -1.62499,0 -3.025,-0.975 -4.2,-0.975 -1.025,0 -1.675,0.8 -1.675,1.775 0,2.35 4.15001,2.8 6.075,2.8 3.45,0 6.4,-2.225 6.4,-5.8 0,-6.44999 -8.35,-4.8 -8.35,-7.375 0,-1.05 0.975,-1.625 2.05,-1.625 1.5,0 2.3,0.75 3.325,0.75 1.025,0 1.675,-0.875 1.675,-1.85 0,-1.975 -3.5,-2.5 -4.9,-2.5"
       style="font-size:25px;font-variant:normal;font-weight:bold;font-stretch:normal;fill:#333333;font-family:VAGRounded;-inkscape-font-specification:VAGRounded Bold"
       id="path3777"
       inkscape:connector-curvature="0" /><path
       d="m 148.77875,364.72147 c -0.05,0.125 -0.175,0.425 -0.175,0.825 0,1 0.85,1.75 1.85,1.75 1.025,0 1.55,-0.55 1.8,-1.325 l 0.75,-2.325 6.95,0 0.75,2.35 c 0.25,0.75 0.775,1.3 1.825,1.3 0.925,0 1.725,-0.675 1.725,-1.65 0,-0.175 -0.05,-0.525 -0.2,-0.925 l -4.9,-13.6 c -0.425,-1.2 -1.35,-2.075 -2.675,-2.075 -1.275,0 -2.25,0.925 -2.675,2.075 l -5.025,13.6 m 7.675,-11.775 0.05,0 2.325,7.25 -4.75,0 2.375,-7.25"
       style="font-size:25px;font-variant:normal;font-weight:bold;font-stretch:normal;fill:#333333;font-family:VAGRounded;-inkscape-font-specification:VAGRounded Bold"
       id="path3779"
       inkscape:connector-curvature="0" /><path
       d="m 165.30024,365.34647 c 0,1.25 0.8,1.95 1.875,1.95 1.07499,0 1.875,-0.7 1.875,-1.95 l 0,-9.325 0.05,0 7.925,10.45 c 0.35,0.45 1.1,0.825 1.575,0.825 1.07499,0 1.875,-0.7 1.875,-1.95 l 0,-14.2 c 0,-1.25 -0.80001,-1.95 -1.875,-1.95 -1.075,0 -1.875,0.7 -1.875,1.95 l 0,9.45 -0.05,0 -7.925,-10.575 c -0.325,-0.45 -1.1,-0.825 -1.575,-0.825 -1.075,0 -1.875,0.7 -1.875,1.95 l 0,14.2"
       style="font-size:25px;font-variant:normal;font-weight:bold;font-stretch:normal;fill:#333333;font-family:VAGRounded;-inkscape-font-specification:VAGRounded Bold"
       id="path3781"
       inkscape:connector-curvature="0" /><path
       d="m 189.12836,360.07147 c 0,4.25 3.425,7.375 7.6,7.375 4.125,0 7.575,-3.175 7.575,-7.375 l 0,-8.925 c 0,-1.25 -0.8,-1.95 -1.875,-1.95 -1.075,0 -1.875,0.7 -1.875,1.95 l 0,8.725 c 0,2.2 -1.55,4.125 -3.825,4.125 -2.375,0 -3.85,-1.825 -3.85,-4.125 l 0,-8.725 c 0,-1.25 -0.8,-1.95 -1.875,-1.95 -1.075,0 -1.875,0.7 -1.875,1.95 l 0,8.925"
       style="font-size:25px;font-variant:normal;font-weight:bold;font-stretch:normal;fill:#333333;font-family:VAGRounded;-inkscape-font-specification:VAGRounded Bold"
       id="path3783"
       inkscape:connector-curvature="0" /><path
       d="m 205.91703,365.07147 c -0.025,0.15 -0.025,0.3 -0.025,0.425 0,1.1 0.8,1.8 1.8,1.8 1.275,0 1.775,-0.575 1.95,-1.75 l 1.475,-10.175 0.05,0 3,10.475 c 0.175,0.6 0.65,1.45 2,1.45 1.35,0 1.825,-0.85 2,-1.45 l 3,-10.475 0.05,0 1.475,10.175 c 0.175,1.175 0.675,1.75 1.95,1.75 1,0 1.8,-0.7 1.8,-1.8 0,-0.125 0,-0.275 -0.025,-0.425 l -2.325,-13.95 c -0.15,-0.9 -1.125,-1.925 -2.45,-1.925 -1.25,0 -2.225,0.9 -2.5,1.8 l -2.95,9.9 -0.05,0 -2.95,-9.9 c -0.275,-0.9 -1.25,-1.8 -2.5,-1.8 -1.325,0 -2.3,1.025 -2.45,1.925 l -2.325,13.95"
       style="font-size:25px;font-variant:normal;font-weight:bold;font-stretch:normal;fill:#333333;font-family:VAGRounded;-inkscape-font-specification:VAGRounded Bold"
       id="path3785"
       inkscape:connector-curvature="0" /><path
       d="m 237.74555,356.59647 c -0.95,0 -1.75,0.65 -1.75,1.7 0,1.025 0.725,1.75 1.75,1.75 l 2.55,0 c 0,2.85 -2.275,3.95 -4.25,3.95 -3.175,0 -4.7,-2.7 -4.7,-5.75 0,-3.02499 1.575,-5.75 4.7,-5.75 3.27499,0 3.625,1.825 5.325,1.825 0.875,0 1.55,-0.675 1.55,-1.75 0,-1.75 -3.10001,-3.525 -6.875,-3.525 -5.1,0 -8.6,4.00001 -8.6,9.2 0,5.175 3.525,9.2 8.6,9.2 4.99999,0 8.15,-3.625 8.15,-8.45 0,-1.6 -0.625,-2.4 -2.2,-2.4 l -4.25,0"
       style="font-size:25px;font-variant:normal;font-weight:bold;font-stretch:normal;fill:#333333;font-family:VAGRounded;-inkscape-font-specification:VAGRounded Bold"
       id="path3787"
       inkscape:connector-curvature="0" /><path
       d="m 244.82367,364.72147 c -0.05,0.125 -0.175,0.425 -0.175,0.825 0,1 0.85,1.75 1.85,1.75 1.025,0 1.55,-0.55 1.8,-1.325 l 0.75,-2.325 6.95,0 0.75,2.35 c 0.25,0.75 0.775,1.3 1.825,1.3 0.925,0 1.725,-0.675 1.725,-1.65 0,-0.175 -0.05,-0.525 -0.2,-0.925 l -4.9,-13.6 c -0.425,-1.2 -1.35,-2.075 -2.675,-2.075 -1.275,0 -2.25,0.925 -2.675,2.075 l -5.025,13.6 m 7.675,-11.775 0.05,0 2.325,7.25 -4.75,0 2.375,-7.25"
       style="font-size:25px;font-variant:normal;font-weight:bold;font-stretch:normal;fill:#333333;font-family:VAGRounded;-inkscape-font-specification:VAGRounded Bold"
       id="path3789"
       inkscape:connector-curvature="0" /><path
       d="m 261.34516,365.34647 c 0,1.25 0.8,1.95 1.875,1.95 1.075,0 1.875,-0.7 1.875,-1.95 l 0,-9.325 0.05,0 7.925,10.45 c 0.35,0.45 1.1,0.825 1.575,0.825 1.075,0 1.875,-0.7 1.875,-1.95 l 0,-14.2 c 0,-1.25 -0.8,-1.95 -1.875,-1.95 -1.075,0 -1.875,0.7 -1.875,1.95 l 0,9.45 -0.05,0 -7.925,-10.575 c -0.325,-0.45 -1.1,-0.825 -1.575,-0.825 -1.075,0 -1.875,0.7 -1.875,1.95 l 0,14.2"
       style="font-size:25px;font-variant:normal;font-weight:bold;font-stretch:normal;fill:#333333;font-family:VAGRounded;-inkscape-font-specification:VAGRounded Bold"
       id="path3791"
       inkscape:connector-curvature="0" /><path
       d="m 288.23383,356.59647 c -0.95,0 -1.75,0.65 -1.75,1.7 0,1.025 0.725,1.75 1.75,1.75 l 2.55,0 c 0,2.85 -2.275,3.95 -4.25,3.95 -3.175,0 -4.7,-2.7 -4.7,-5.75 0,-3.02499 1.575,-5.75 4.7,-5.75 3.275,0 3.625,1.825 5.325,1.825 0.875,0 1.55,-0.675 1.55,-1.75 0,-1.75 -3.1,-3.525 -6.875,-3.525 -5.1,0 -8.6,4.00001 -8.6,9.2 0,5.175 3.525,9.2 8.6,9.2 4.99999,0 8.15,-3.625 8.15,-8.45 0,-1.6 -0.625,-2.4 -2.2,-2.4 l -4.25,0"
       style="font-size:25px;font-variant:normal;font-weight:bold;font-stretch:normal;fill:#333333;font-family:VAGRounded;-inkscape-font-specification:VAGRounded Bold"
       id="path3793"
       inkscape:connector-curvature="0" /><path
       d="m 301.83695,349.04647 c -3.32499,0 -6.2,2.17501 -6.2,5.675 0,5.8 8.35,4.02501 8.35,6.975 0,1.225 -0.9,2.15 -2.55,2.15 -1.62499,0 -3.025,-0.975 -4.2,-0.975 -1.02499,0 -1.675,0.8 -1.675,1.775 0,2.35 4.15001,2.8 6.075,2.8 3.45,0 6.4,-2.225 6.4,-5.8 0,-6.44999 -8.35,-4.8 -8.35,-7.375 0,-1.05 0.97501,-1.625 2.05,-1.625 1.5,0 2.30001,0.75 3.325,0.75 1.025,0 1.675,-0.875 1.675,-1.85 0,-1.975 -3.5,-2.5 -4.9,-2.5"
       style="font-size:25px;font-variant:normal;font-weight:bold;font-stretch:normal;fill:#333333;font-family:VAGRounded;-inkscape-font-specification:VAGRounded Bold"
       id="path3795"
       inkscape:connector-curvature="0" /><path
       d="m 315.26469,349.04647 c -3.325,0 -6.2,2.17501 -6.2,5.675 0,5.8 8.35,4.02501 8.35,6.975 0,1.225 -0.9,2.15 -2.55,2.15 -1.625,0 -3.025,-0.975 -4.2,-0.975 -1.025,0 -1.675,0.8 -1.675,1.775 0,2.35 4.15,2.8 6.075,2.8 3.45,0 6.4,-2.225 6.4,-5.8 0,-6.44999 -8.35,-4.8 -8.35,-7.375 0,-1.05 0.975,-1.625 2.05,-1.625 1.5,0 2.3,0.75 3.325,0.75 1.025,0 1.675,-0.875 1.675,-1.85 0,-1.975 -3.5,-2.5 -4.9,-2.5"
       style="font-size:25px;font-variant:normal;font-weight:bold;font-stretch:normal;fill:#333333;font-family:VAGRounded;-inkscape-font-specification:VAGRounded Bold"
       id="path3797"
       inkscape:connector-curvature="0" /><path
       d="m 323.06742,365.34647 c 0,1.25 0.8,1.95 1.875,1.95 1.075,0 1.875,-0.7 1.875,-1.95 l 0,-4.1 2.775,0 c 3.425,0 6.25,-2.275 6.25,-5.925 0,-3.57499 -2.725,-5.975 -6.4,-5.975 l -4.425,0 c -1.25,0 -1.95,0.775 -1.95,1.95 l 0,14.05 m 3.75,-12.7 2.55,0 c 1.575,0 2.575,1.15 2.575,2.65 0,1.5 -1,2.65 -2.575,2.65 l -2.55,0 0,-5.3"
       style="font-size:25px;font-variant:normal;font-weight:bold;font-stretch:normal;fill:#333333;font-family:VAGRounded;-inkscape-font-specification:VAGRounded Bold"
       id="path3799"
       inkscape:connector-curvature="0" /><path
       d="m 336.98344,365.34647 c 0,1.25 0.8,1.95 1.875,1.95 1.075,0 1.875,-0.7 1.875,-1.95 l 0,-5.425 0.05,0 5.55,6.725 c 0.4,0.475 1,0.65 1.45,0.65 1.1,0 1.875,-0.95 1.875,-1.925 0,-0.35 -0.15,-0.725 -0.5,-1.1 l -4.25,-4.55 c 2.55,-0.4 4.625,-1.975 4.625,-4.725 0,-3.92499 -2.37501,-5.65 -6.225,-5.65 l -4.4,0 c -1.25,0 -1.925,0.75 -1.925,1.95 l 0,14.05 m 3.75,-12.55 2.575,0 c 1.375,0 2.325,0.775 2.325,2.2 0,1.4 -0.95,2.225 -2.325,2.225 l -2.575,0 0,-4.425"
       style="font-size:25px;font-variant:normal;font-weight:bold;font-stretch:normal;fill:#333333;font-family:VAGRounded;-inkscape-font-specification:VAGRounded Bold"
       id="path3801"
       inkscape:connector-curvature="0" /><path
       d="m 349.99945,364.72147 c -0.05,0.125 -0.175,0.425 -0.175,0.825 0,1 0.85001,1.75 1.85,1.75 1.025,0 1.55,-0.55 1.8,-1.325 l 0.75,-2.325 6.95,0 0.75,2.35 c 0.25,0.75 0.77501,1.3 1.825,1.3 0.925,0 1.725,-0.675 1.725,-1.65 0,-0.175 -0.05,-0.525 -0.2,-0.925 l -4.9,-13.6 c -0.425,-1.2 -1.35,-2.075 -2.675,-2.075 -1.27499,0 -2.25,0.925 -2.675,2.075 l -5.025,13.6 m 7.675,-11.775 0.05,0 2.325,7.25 -4.75,0 2.375,-7.25"
       style="font-size:25px;font-variant:normal;font-weight:bold;font-stretch:normal;fill:#333333;font-family:VAGRounded;-inkscape-font-specification:VAGRounded Bold"
       id="path3803"
       inkscape:connector-curvature="0" /><path
       d="m 365.97094,358.24647 c 0,5.175 3.525,9.2 8.6,9.2 1.85,0 5.625,-0.55 5.625,-2.95 0,-0.575 -0.525,-1.7 -1.65,-1.7 -1.025,0 -1.875,1.05 -3.975,1.05 -3.075,0 -4.7,-2.55 -4.7,-5.525 0,-3.04999 1.6,-5.675 4.7,-5.675 2.1,0 2.8,0.875 3.825,0.875 0.925,0 1.55,-0.775 1.55,-1.675 0,-2.19999 -3.55,-2.8 -5.375,-2.8 -5.1,0 -8.6,4.00001 -8.6,9.2"
       style="font-size:25px;font-variant:normal;font-weight:bold;font-stretch:normal;fill:#333333;font-family:VAGRounded;-inkscape-font-specification:VAGRounded Bold"
       id="path3805"
       inkscape:connector-curvature="0" /><path
       d="m 381.95414,365.34647 c 0,1.25 0.8,1.95 1.875,1.95 1.075,0 1.875,-0.7 1.875,-1.95 l 0,-5.45 7.85,0 0,5.45 c 0,1.25 0.8,1.95 1.875,1.95 1.075,0 1.875,-0.7 1.875,-1.95 l 0,-14.2 c 0,-1.25 -0.8,-1.95 -1.875,-1.95 -1.075,0 -1.875,0.7 -1.875,1.95 l 0,5.3 -7.85,0 0,-5.3 c 0,-1.25 -0.8,-1.95 -1.875,-1.95 -1.075,0 -1.875,0.7 -1.875,1.95 l 0,14.2"
       style="font-size:25px;font-variant:normal;font-weight:bold;font-stretch:normal;fill:#333333;font-family:VAGRounded;-inkscape-font-specification:VAGRounded Bold"
       id="path3807"
       inkscape:connector-curvature="0" /><path
       d="m 399.53227,365.27147 c 0,1.125 0.825,1.875 1.925,1.875 l 6.45,0 c 1.175,0 1.775,-0.875 1.775,-1.725 0,-0.875 -0.575,-1.725 -1.775,-1.725 l -4.625,0 0,-3.8 4.1,0 c 1.2,0 1.825,-0.875 1.825,-1.725 0,-0.875 -0.6,-1.725 -1.825,-1.725 l -4.1,0 0,-3.65 4.4,0 c 1.175,0 1.775,-0.875 1.775,-1.725 0,-0.875 -0.575,-1.725 -1.775,-1.725 l -6.2,0 c -1.325,0 -1.95,0.925 -1.95,2.175 l 0,13.75"
       style="font-size:25px;font-variant:normal;font-weight:bold;font-stretch:normal;fill:#333333;font-family:VAGRounded;-inkscape-font-specification:VAGRounded Bold"
       id="path3809"
       inkscape:connector-curvature="0" /><path
       d="m 417.64399,360.07147 c 0,4.25 3.425,7.375 7.6,7.375 4.12499,0 7.575,-3.175 7.575,-7.375 l 0,-8.925 c 0,-1.25 -0.80001,-1.95 -1.875,-1.95 -1.075,0 -1.875,0.7 -1.875,1.95 l 0,8.725 c 0,2.2 -1.55001,4.125 -3.825,4.125 -2.375,0 -3.85,-1.825 -3.85,-4.125 l 0,-8.725 c 0,-1.25 -0.80001,-1.95 -1.875,-1.95 -1.075,0 -1.875,0.7 -1.875,1.95 l 0,8.925"
       style="font-size:25px;font-variant:normal;font-weight:bold;font-stretch:normal;fill:#333333;font-family:VAGRounded;-inkscape-font-specification:VAGRounded Bold"
       id="path3811"
       inkscape:connector-curvature="0" /><path
       d="m 434.78266,365.34647 c 0,1.25 0.8,1.95 1.875,1.95 1.075,0 1.875,-0.7 1.875,-1.95 l 0,-9.325 0.05,0 7.925,10.45 c 0.35,0.45 1.1,0.825 1.575,0.825 1.075,0 1.875,-0.7 1.875,-1.95 l 0,-14.2 c 0,-1.25 -0.8,-1.95 -1.875,-1.95 -1.075,0 -1.875,0.7 -1.875,1.95 l 0,9.45 -0.05,0 -7.925,-10.575 c -0.325,-0.45 -1.1,-0.825 -1.575,-0.825 -1.075,0 -1.875,0.7 -1.875,1.95 l 0,14.2"
       style="font-size:25px;font-variant:normal;font-weight:bold;font-stretch:normal;fill:#333333;font-family:VAGRounded;-inkscape-font-specification:VAGRounded Bold"
       id="path3813"
       inkscape:connector-curvature="0" /><path
       d="m 452.07133,365.27147 c 0,1.425 1.15,1.875 1.975,1.875 l 4.35,0 c 5.14999,0 8.55,-3.4 8.55,-8.65 0,-5.54999 -3.20001,-9.15 -8.8,-9.15 l -4.15,0 c -1.125,0 -1.925,0.775 -1.925,1.925 l 0,14 m 3.75,-12.475 2.275,0 c 3.45,0 4.95,2.32501 4.95,5.525 0,3 -1.475,5.375 -4.7,5.375 l -2.525,0 0,-10.9"
       style="font-size:25px;font-variant:normal;font-weight:bold;font-stretch:normal;fill:#333333;font-family:VAGRounded;-inkscape-font-specification:VAGRounded Bold"
       id="path3815"
       inkscape:connector-curvature="0" /><path
       d="m 481.085,349.04647 c -3.325,0 -6.2,2.17501 -6.2,5.675 0,5.8 8.35,4.02501 8.35,6.975 0,1.225 -0.9,2.15 -2.55,2.15 -1.625,0 -3.025,-0.975 -4.2,-0.975 -1.025,0 -1.675,0.8 -1.675,1.775 0,2.35 4.15,2.8 6.075,2.8 3.45,0 6.4,-2.225 6.4,-5.8 0,-6.44999 -8.35,-4.8 -8.35,-7.375 0,-1.05 0.975,-1.625 2.05,-1.625 1.5,0 2.3,0.75 3.325,0.75 1.025,0 1.675,-0.875 1.675,-1.85 0,-1.975 -3.5,-2.5 -4.9,-2.5"
       style="font-size:25px;font-variant:normal;font-weight:bold;font-stretch:normal;fill:#333333;font-family:VAGRounded;-inkscape-font-specification:VAGRounded Bold"
       id="path3817"
       inkscape:connector-curvature="0" /><path
       d="m 488.88774,365.34647 c 0,1.25 0.8,1.95 1.875,1.95 1.07499,0 1.875,-0.7 1.875,-1.95 l 0,-4.1 2.775,0 c 3.42499,0 6.25,-2.275 6.25,-5.925 0,-3.57499 -2.72501,-5.975 -6.4,-5.975 l -4.425,0 c -1.25,0 -1.95,0.775 -1.95,1.95 l 0,14.05 m 3.75,-12.7 2.55,0 c 1.57499,0 2.575,1.15 2.575,2.65 0,1.5 -1.00001,2.65 -2.575,2.65 l -2.55,0 0,-5.3"
       style="font-size:25px;font-variant:normal;font-weight:bold;font-stretch:normal;fill:#333333;font-family:VAGRounded;-inkscape-font-specification:VAGRounded Bold"
       id="path3819"
       inkscape:connector-curvature="0" /><path
       d="m 502.80375,365.34647 c 0,1.25 0.8,1.95 1.875,1.95 1.075,0 1.875,-0.7 1.875,-1.95 l 0,-5.425 0.05,0 5.55,6.725 c 0.4,0.475 1,0.65 1.45,0.65 1.1,0 1.875,-0.95 1.875,-1.925 0,-0.35 -0.15,-0.725 -0.5,-1.1 l -4.25,-4.55 c 2.55,-0.4 4.625,-1.975 4.625,-4.725 0,-3.92499 -2.375,-5.65 -6.225,-5.65 l -4.4,0 c -1.25,0 -1.925,0.75 -1.925,1.95 l 0,14.05 m 3.75,-12.55 2.575,0 c 1.375,0 2.325,0.775 2.325,2.2 0,1.4 -0.95,2.225 -2.325,2.225 l -2.575,0 0,-4.425"
       style="font-size:25px;font-variant:normal;font-weight:bold;font-stretch:normal;fill:#333333;font-family:VAGRounded;-inkscape-font-specification:VAGRounded Bold"
       id="path3821"
       inkscape:connector-curvature="0" /><path
       d="m 516.71977,365.34647 c 0,1.25 0.8,1.95 1.875,1.95 1.075,0 1.875,-0.7 1.875,-1.95 l 0,-14.2 c 0,-1.25 -0.8,-1.95 -1.875,-1.95 -1.075,0 -1.875,0.7 -1.875,1.95 l 0,14.2"
       style="font-size:25px;font-variant:normal;font-weight:bold;font-stretch:normal;fill:#333333;font-family:VAGRounded;-inkscape-font-specification:VAGRounded Bold"
       id="path3823"
       inkscape:connector-curvature="0" /><path
       d="m 522.02563,358.24647 c 0,5.175 3.525,9.2 8.6,9.2 1.84999,0 5.625,-0.55 5.625,-2.95 0,-0.575 -0.525,-1.7 -1.65,-1.7 -1.025,0 -1.87501,1.05 -3.975,1.05 -3.075,0 -4.7,-2.55 -4.7,-5.525 0,-3.04999 1.6,-5.675 4.7,-5.675 2.09999,0 2.8,0.875 3.825,0.875 0.925,0 1.55,-0.775 1.55,-1.675 0,-2.19999 -3.55001,-2.8 -5.375,-2.8 -5.1,0 -8.6,4.00001 -8.6,9.2"
       style="font-size:25px;font-variant:normal;font-weight:bold;font-stretch:normal;fill:#333333;font-family:VAGRounded;-inkscape-font-specification:VAGRounded Bold"
       id="path3825"
       inkscape:connector-curvature="0" /><path
       d="m 538.00883,365.34647 c 0,1.25 0.8,1.95 1.875,1.95 1.075,0 1.875,-0.7 1.875,-1.95 l 0,-5.45 7.85,0 0,5.45 c 0,1.25 0.8,1.95 1.875,1.95 1.075,0 1.875,-0.7 1.875,-1.95 l 0,-14.2 c 0,-1.25 -0.8,-1.95 -1.875,-1.95 -1.075,0 -1.875,0.7 -1.875,1.95 l 0,5.3 -7.85,0 0,-5.3 c 0,-1.25 -0.8,-1.95 -1.875,-1.95 -1.075,0 -1.875,0.7 -1.875,1.95 l 0,14.2"
       style="font-size:25px;font-variant:normal;font-weight:bold;font-stretch:normal;fill:#333333;font-family:VAGRounded;-inkscape-font-specification:VAGRounded Bold"
       id="path3827"
       inkscape:connector-curvature="0" /><path
       d="m 557.93695,365.34647 c 0.25,1.05 1.07501,1.95 2.475,1.95 1.225,0 2.175,-0.8 2.475,-1.825 l 2.9,-9.65 0.05,0 2.9,9.65 c 0.3,1.025 1.25001,1.825 2.475,1.825 1.4,0 2.225,-0.9 2.475,-1.95 l 3.175,-13.65 c 0.075,-0.325 0.1,-0.5 0.1,-0.85 0,-0.8 -0.675,-1.65 -1.775,-1.65 -1.19999,0 -1.775,0.7 -2,1.8 l -2.125,10.625 -0.05,0 -3.25,-10.95 c -0.275,-0.9 -1.025,-1.475 -1.95,-1.475 -0.92499,0 -1.675,0.575 -1.95,1.475 l -3.25,10.95 -0.05,0 -2.125,-10.625 c -0.225,-1.1 -0.8,-1.8 -2,-1.8 -1.09999,0 -1.775,0.85 -1.775,1.65 0,0.35 0.025,0.525 0.1,0.85 l 3.175,13.65"
       style="font-size:25px;font-variant:normal;font-weight:bold;font-stretch:normal;fill:#333333;font-family:VAGRounded;-inkscape-font-specification:VAGRounded Bold"
       id="path3829"
       inkscape:connector-curvature="0" /><path
       d="m 586.19203,363.99647 c -3.17499,0 -4.7,-2.7 -4.7,-5.75 0,-3.02499 1.57501,-5.75 4.7,-5.75 3.125,0 4.7,2.72501 4.7,5.75 0,3.05 -1.525,5.75 -4.7,5.75 m 0,3.45 c 5.125,0 8.6,-4.025 8.6,-9.2 0,-5.07499 -3.575,-9.2 -8.6,-9.2 -5.09999,0 -8.6,4.00001 -8.6,9.2 0,5.175 3.52501,9.2 8.6,9.2 m 0.95,-21.225 c 0,1 0.8,1.8 1.8,1.8 1,0 1.8,-0.8 1.8,-1.8 0,-1 -0.8,-1.8 -1.8,-1.8 -1,0 -1.8,0.8 -1.8,1.8 m -5.5,0 c 0,1 0.8,1.8 1.8,1.8 1,0 1.8,-0.8 1.8,-1.8 0,-1 -0.8,-1.8 -1.8,-1.8 -1,0 -1.8,0.8 -1.8,1.8"
       style="font-size:25px;font-variant:normal;font-weight:bold;font-stretch:normal;fill:#333333;font-family:VAGRounded;-inkscape-font-specification:VAGRounded Bold"
       id="path3831"
       inkscape:connector-curvature="0" /><path
       d="m 596.35844,365.34647 c 0,1.25 0.8,1.95 1.875,1.95 1.075,0 1.875,-0.7 1.875,-1.95 l 0,-5.425 0.05,0 5.55,6.725 c 0.4,0.475 1,0.65 1.45,0.65 1.1,0 1.875,-0.95 1.875,-1.925 0,-0.35 -0.15,-0.725 -0.5,-1.1 l -4.25,-4.55 c 2.55,-0.4 4.625,-1.975 4.625,-4.725 0,-3.92499 -2.37501,-5.65 -6.225,-5.65 l -4.4,0 c -1.25,0 -1.925,0.75 -1.925,1.95 l 0,14.05 m 3.75,-12.55 2.575,0 c 1.375,0 2.325,0.775 2.325,2.2 0,1.4 -0.95,2.225 -2.325,2.225 l -2.575,0 0,-4.425"
       style="font-size:25px;font-variant:normal;font-weight:bold;font-stretch:normal;fill:#333333;font-family:VAGRounded;-inkscape-font-specification:VAGRounded Bold"
       id="path3833"
       inkscape:connector-curvature="0" /><path
       d="m 613.27445,365.34647 c 0,1.25 0.80001,1.95 1.875,1.95 1.075,0 1.875,-0.7 1.875,-1.95 l 0,-12.55 2.725,0 c 1.2,0 1.7,-0.875 1.7,-1.725 0,-0.875 -0.625,-1.725 -1.7,-1.725 l -9.2,0 c -1.07499,0 -1.7,0.85 -1.7,1.725 0,0.85 0.50001,1.725 1.7,1.725 l 2.725,0 0,12.55"
       style="font-size:25px;font-variant:normal;font-weight:bold;font-stretch:normal;fill:#333333;font-family:VAGRounded;-inkscape-font-specification:VAGRounded Bold"
       id="path3835"
       inkscape:connector-curvature="0" /><path
       d="m 622.28617,365.27147 c 0,1.125 0.825,1.875 1.925,1.875 l 6.45,0 c 1.175,0 1.775,-0.875 1.775,-1.725 0,-0.875 -0.575,-1.725 -1.775,-1.725 l -4.625,0 0,-3.8 4.1,0 c 1.2,0 1.825,-0.875 1.825,-1.725 0,-0.875 -0.6,-1.725 -1.825,-1.725 l -4.1,0 0,-3.65 4.4,0 c 1.175,0 1.775,-0.875 1.775,-1.725 0,-0.875 -0.575,-1.725 -1.775,-1.725 l -6.2,0 c -1.325,0 -1.95,0.925 -1.95,2.175 l 0,13.75"
       style="font-size:25px;font-variant:normal;font-weight:bold;font-stretch:normal;fill:#333333;font-family:VAGRounded;-inkscape-font-specification:VAGRounded Bold"
       id="path3837"
       inkscape:connector-curvature="0" /><path
       d="m 633.85844,365.34647 c 0,1.25 0.8,1.95 1.875,1.95 1.075,0 1.875,-0.7 1.875,-1.95 l 0,-5.425 0.05,0 5.55,6.725 c 0.4,0.475 1,0.65 1.45,0.65 1.1,0 1.875,-0.95 1.875,-1.925 0,-0.35 -0.15,-0.725 -0.5,-1.1 l -4.25,-4.55 c 2.55,-0.4 4.625,-1.975 4.625,-4.725 0,-3.92499 -2.37501,-5.65 -6.225,-5.65 l -4.4,0 c -1.25,0 -1.925,0.75 -1.925,1.95 l 0,14.05 m 3.75,-12.55 2.575,0 c 1.375,0 2.325,0.775 2.325,2.2 0,1.4 -0.95,2.225 -2.325,2.225 l -2.575,0 0,-4.425"
       style="font-size:25px;font-variant:normal;font-weight:bold;font-stretch:normal;fill:#333333;font-family:VAGRounded;-inkscape-font-specification:VAGRounded Bold"
       id="path3839"
       inkscape:connector-curvature="0" /><path
       d="m 647.62445,365.34647 c 0,1.25 0.80001,1.95 1.875,1.95 1.075,0 1.875,-0.7 1.875,-1.95 l 0,-9.325 0.05,0 7.925,10.45 c 0.35,0.45 1.1,0.825 1.575,0.825 1.075,0 1.875,-0.7 1.875,-1.95 l 0,-14.2 c 0,-1.25 -0.8,-1.95 -1.875,-1.95 -1.07499,0 -1.875,0.7 -1.875,1.95 l 0,9.45 -0.05,0 -7.925,-10.575 c -0.325,-0.45 -1.1,-0.825 -1.575,-0.825 -1.07499,0 -1.875,0.7 -1.875,1.95 l 0,14.2"
       style="font-size:25px;font-variant:normal;font-weight:bold;font-stretch:normal;fill:#333333;font-family:VAGRounded;-inkscape-font-specification:VAGRounded Bold"
       id="path3841"
       inkscape:connector-curvature="0" /></g></svg>